<?xml version="1.0" encoding="utf-8"?>
<!-- Generator: Adobe Illustrator 24.1.2, SVG Export Plug-In . SVG Version: 6.00 Build 0)  -->
<svg version="1.2" baseProfile="tiny" xmlns="http://www.w3.org/2000/svg" xmlns:xlink="http://www.w3.org/1999/xlink" x="0px"
	 y="0px" viewBox="0 0 110 110" overflow="visible" xml:space="preserve">
<g id="Capa_1">
</g>
<g id="Capa_2">
</g>
<g id="errores_genericos">
	<rect fill="none" width="110" height="110"/>
	<g>
		<path fill="#494848" d="M55,17.1c15.7,0,31.4,0,47,0c0.5,0,1,0,1.4,0.1c1,0.2,1.5,0.8,1.5,1.8c0,0.3,0,0.5,0,0.8
			c0,17.5,0,35,0,52.5c0,2.1-0.6,2.7-2.7,2.7c-11,0-22,0-33,0c-1,0-1.6,0.3-2.1,1.1c-3.4,5.2-6.9,10.3-10.3,15.4
			c-1.2,1.8-2.5,1.8-3.7,0c-3.5-5.2-7-10.4-10.5-15.6c-0.5-0.7-1-1-1.9-1c-10.9,0-21.7,0-32.6,0c-0.4,0-0.8,0-1.2,0
			c-1.4-0.1-2-0.8-2-2.2c0-7.5,0-15.1,0-22.6c0-10,0-20,0-30c0-2.6,0.4-3.1,3-3.1C23.7,17.1,39.3,17.1,55,17.1z M55.1,20.8
			c-15,0-30.1,0-45.1,0c-1.3,0-1.3,0-1.3,1.3c0,16,0,31.9,0,47.9c0,1.3,0,1.3,1.3,1.3c10.7,0,21.3,0,32,0c1.4,0,2.2,0.4,3,1.6
			c3,4.6,6.2,9.2,9.3,13.9c0.8,1.2,0.8,1.2,1.6,0c3-4.6,6.1-9.1,9.1-13.7c0.8-1.2,1.7-1.7,3.2-1.7c10.7,0.1,21.3,0,32,0
			c1.3,0,1.3,0,1.3-1.3c0-1.9,0-3.8,0-5.7c0-1.3,0-1.3-1.3-1.3c-6.7,0-13.4,0-20.1,0c-0.5,0-1,0-1.4-0.1c-0.8-0.3-1.3-0.9-1.3-1.7
			c0-0.8,0.5-1.4,1.2-1.7c0.5-0.2,0.9-0.2,1.4-0.2c6.7,0,13.4,0,20.1,0c1.4,0,1.4,0,1.4-1.4c0-11.9,0-23.8,0-35.6
			c0-1.4,0-1.4-1.4-1.4C85,20.8,70,20.8,55.1,20.8z"/>
		<path fill="#494848" d="M62,53.5c0,3.2,0,6.4,0,9.7c0,1.9-0.6,2.5-2.5,2.5c-3.1,0-6.1,0-9.2,0c-1.6,0-2.3-0.7-2.3-2.3
			c0-6.6,0-13.2,0-19.8c0-1.6,0.8-2.3,2.3-2.3c3.2,0,6.3,0,9.5,0c1.5,0,2.3,0.7,2.3,2.3C62,46.8,62,50.2,62,53.5z M51.7,53.4
			c0,2.5,0,5,0,7.6c0,0.7,0.2,1,0.9,1c1.6,0,3.2,0,4.8,0c0.7,0,0.9-0.3,0.9-1c0-5,0-10.1,0-15.1c0-0.8-0.3-1-1-1c-1.5,0-3,0.1-4.5,0
			c-0.9,0-1.1,0.3-1.1,1.2C51.7,48.5,51.7,51,51.7,53.4z"/>
		<path fill="#494848" d="M62,32.8c0,3.7-3.3,7-7,7c-3.7,0-7-3.3-7-7.1c0-3.7,3.3-7,7-7C58.8,25.7,62,29,62,32.8z M51.7,32.7
			c0,1.9,1.4,3.4,3.3,3.4c1.8,0,3.3-1.4,3.3-3.3c0-1.8-1.3-3.3-3.7-3.5C53.1,29.2,51.7,30.9,51.7,32.7z"/>
	</g>
</g>
</svg>
